<svg width="26" height="26" viewBox="0 0 26 26" fill="none" xmlns="http://www.w3.org/2000/svg">
<path d="M25 13C25 19.6274 19.6274 25 13 25C6.37258 25 1 19.6274 1 13C1 6.37258 6.37258 1 13 1C19.6274 1 25 6.37258 25 13Z" stroke="#2A84EE" stroke-width="2"/>
<path d="M8.5 14.9371L9.96468 16.5L13.0024 13.5048L16.0353 16.5L17.5 14.9371L13.7323 11.221L13.0024 10.5L12.2677 11.221L8.5 14.9371Z" fill="black"/>
<path d="M8.5 14.9371L9.96468 16.5L13.0024 13.5048L16.0353 16.5L17.5 14.9371L13.7323 11.221L13.0024 10.5L12.2677 11.221L8.5 14.9371Z" fill="url(#paint0_linear_109_4)"/>
<path d="M8.5 14.9371L9.96468 16.5L13.0024 13.5048L16.0353 16.5L17.5 14.9371L13.7323 11.221L13.0024 10.5L12.2677 11.221L8.5 14.9371Z" fill="#2A84EE"/>
<defs>
<linearGradient id="paint0_linear_109_4" x1="8.50001" y1="16.1498" x2="8.67194" y2="6.05961" gradientUnits="userSpaceOnUse">
<stop stop-color="#11AE88"/>
<stop offset="1" stop-color="#2A84EE"/>
</linearGradient>
</defs>
</svg>
