<svg width="130" height="49" viewBox="0 0 130 49" fill="none" xmlns="http://www.w3.org/2000/svg">
<path d="M83.6001 25.6018H108.546L104.865 29.266C104.715 29.4148 104.596 29.5917 104.515 29.7867C104.434 29.9817 104.392 30.1908 104.392 30.4021C104.392 30.6133 104.434 30.8224 104.515 31.0174C104.596 31.2124 104.715 31.3894 104.865 31.5381C105.014 31.6881 105.191 31.8072 105.386 31.8884C105.581 31.9696 105.79 32.0114 106.001 32.0114C106.213 32.0114 106.422 31.9696 106.617 31.8884C106.812 31.8072 106.989 31.6881 107.137 31.5381L113.538 25.1378C113.683 24.9856 113.798 24.8061 113.874 24.6097C114.034 24.2202 114.034 23.7832 113.874 23.3937C113.798 23.1973 113.683 23.0178 113.538 22.8656L107.137 16.4653C106.836 16.164 106.427 15.9947 106.001 15.9947C105.575 15.9947 105.167 16.164 104.865 16.4653C104.564 16.7666 104.395 17.1752 104.395 17.6013C104.395 18.0274 104.564 18.4361 104.865 18.7374L108.546 22.4016H83.6001C83.1757 22.4016 82.7687 22.5702 82.4686 22.8703C82.1686 23.1703 82 23.5773 82 24.0017C82 24.4261 82.1686 24.8331 82.4686 25.1331C82.7687 25.4332 83.1757 25.6018 83.6001 25.6018Z" fill="black"/>
<path d="M83.6001 25.6018H108.546L104.865 29.266C104.715 29.4148 104.596 29.5917 104.515 29.7867C104.434 29.9817 104.392 30.1908 104.392 30.4021C104.392 30.6133 104.434 30.8224 104.515 31.0174C104.596 31.2124 104.715 31.3894 104.865 31.5381C105.014 31.6881 105.191 31.8072 105.386 31.8884C105.581 31.9696 105.79 32.0114 106.001 32.0114C106.213 32.0114 106.422 31.9696 106.617 31.8884C106.812 31.8072 106.989 31.6881 107.137 31.5381L113.538 25.1378C113.683 24.9856 113.798 24.8061 113.874 24.6097C114.034 24.2202 114.034 23.7832 113.874 23.3937C113.798 23.1973 113.683 23.0178 113.538 22.8656L107.137 16.4653C106.836 16.164 106.427 15.9947 106.001 15.9947C105.575 15.9947 105.167 16.164 104.865 16.4653C104.564 16.7666 104.395 17.1752 104.395 17.6013C104.395 18.0274 104.564 18.4361 104.865 18.7374L108.546 22.4016H83.6001C83.1757 22.4016 82.7687 22.5702 82.4686 22.8703C82.1686 23.1703 82 23.5773 82 24.0017C82 24.4261 82.1686 24.8331 82.4686 25.1331C82.7687 25.4332 83.1757 25.6018 83.6001 25.6018Z" fill="url(#paint0_linear_265_3)"/>
<path d="M106.001 0C100.829 0.0203782 95.7998 1.70125 91.6545 4.79506C87.5093 7.88887 84.4671 12.2321 82.9761 17.185C82.9124 17.3888 82.8901 17.6032 82.9105 17.8157C82.931 18.0282 82.9937 18.2345 83.0951 18.4224C83.1965 18.6103 83.3345 18.776 83.5009 18.9097C83.6673 19.0434 83.8588 19.1425 84.0641 19.2011C84.4715 19.3199 84.9094 19.2721 85.2815 19.068C85.6536 18.864 85.9294 18.5205 86.0482 18.1131C87.4675 13.3187 90.5661 9.19599 94.7768 6.49974C98.9876 3.8035 104.029 2.71416 108.977 3.43119C113.925 4.14821 118.45 6.62362 121.722 10.4042C124.994 14.1847 126.795 19.0174 126.795 24.0174C126.795 29.0174 124.994 33.8501 121.722 37.6306C118.45 41.4112 113.925 43.8866 108.977 44.6036C104.029 45.3206 98.9876 44.2313 94.7768 41.5351C90.5661 38.8388 87.4675 34.7161 86.0482 29.9217C85.9928 29.7171 85.8973 29.5256 85.7672 29.3582C85.6371 29.1908 85.475 29.051 85.2904 28.9468C85.1058 28.8426 84.9024 28.7761 84.6918 28.7512C84.4813 28.7263 84.268 28.7434 84.0641 28.8017C83.8606 28.8604 83.6708 28.9589 83.5057 29.0916C83.3406 29.2242 83.2034 29.3883 83.1022 29.5744C83.001 29.7605 82.9377 29.9648 82.9161 30.1754C82.8944 30.3861 82.9148 30.599 82.9761 30.8018C84.2379 35.0728 86.6631 38.9085 89.9805 41.8798C93.2978 44.8511 97.3765 46.8408 101.76 47.6264C106.144 48.412 110.66 47.9625 114.802 46.3281C118.945 44.6937 122.551 41.9389 125.218 38.3719C127.884 34.8048 129.506 30.5663 129.901 26.1304C130.296 21.6944 129.449 17.2361 127.455 13.254C125.46 9.27197 122.398 5.92328 118.609 3.58255C114.82 1.24183 110.455 0.00138884 106.001 0Z" fill="black"/>
<path d="M106.001 0C100.829 0.0203782 95.7998 1.70125 91.6545 4.79506C87.5093 7.88887 84.4671 12.2321 82.9761 17.185C82.9124 17.3888 82.8901 17.6032 82.9105 17.8157C82.931 18.0282 82.9937 18.2345 83.0951 18.4224C83.1965 18.6103 83.3345 18.776 83.5009 18.9097C83.6673 19.0434 83.8588 19.1425 84.0641 19.2011C84.4715 19.3199 84.9094 19.2721 85.2815 19.068C85.6536 18.864 85.9294 18.5205 86.0482 18.1131C87.4675 13.3187 90.5661 9.19599 94.7768 6.49974C98.9876 3.8035 104.029 2.71416 108.977 3.43119C113.925 4.14821 118.45 6.62362 121.722 10.4042C124.994 14.1847 126.795 19.0174 126.795 24.0174C126.795 29.0174 124.994 33.8501 121.722 37.6306C118.45 41.4112 113.925 43.8866 108.977 44.6036C104.029 45.3206 98.9876 44.2313 94.7768 41.5351C90.5661 38.8388 87.4675 34.7161 86.0482 29.9217C85.9928 29.7171 85.8973 29.5256 85.7672 29.3582C85.6371 29.1908 85.475 29.051 85.2904 28.9468C85.1058 28.8426 84.9024 28.7761 84.6918 28.7512C84.4813 28.7263 84.268 28.7434 84.0641 28.8017C83.8606 28.8604 83.6708 28.9589 83.5057 29.0916C83.3406 29.2242 83.2034 29.3883 83.1022 29.5744C83.001 29.7605 82.9377 29.9648 82.9161 30.1754C82.8944 30.3861 82.9148 30.599 82.9761 30.8018C84.2379 35.0728 86.6631 38.9085 89.9805 41.8798C93.2978 44.8511 97.3765 46.8408 101.76 47.6264C106.144 48.412 110.66 47.9625 114.802 46.3281C118.945 44.6937 122.551 41.9389 125.218 38.3719C127.884 34.8048 129.506 30.5663 129.901 26.1304C130.296 21.6944 129.449 17.2361 127.455 13.254C125.46 9.27197 122.398 5.92328 118.609 3.58255C114.82 1.24183 110.455 0.00138884 106.001 0Z" fill="url(#paint1_linear_265_3)"/>
<path d="M46.396 23.4011L21.4505 23.4011L25.1307 19.7369C25.2807 19.5882 25.3998 19.4112 25.481 19.2162C25.5622 19.0212 25.6041 18.8121 25.6041 18.6009C25.6041 18.3896 25.5622 18.1805 25.481 17.9855C25.3998 17.7905 25.2807 17.6135 25.1307 17.4648C24.982 17.3148 24.805 17.1958 24.61 17.1145C24.4151 17.0333 24.2059 16.9915 23.9947 16.9915C23.7835 16.9915 23.5743 17.0333 23.3793 17.1145C23.1843 17.1958 23.0074 17.3148 22.8586 17.4648L16.4582 23.8652C16.3126 24.0173 16.1984 24.1968 16.1222 24.3932C15.9622 24.7828 15.9622 25.2197 16.1222 25.6093C16.1984 25.8057 16.3126 25.9851 16.4582 26.1373L22.8586 32.5377C23.1599 32.839 23.5686 33.0082 23.9947 33.0082C24.4208 33.0082 24.8294 32.839 25.1307 32.5377C25.432 32.2364 25.6013 31.8277 25.6013 31.4016C25.6013 30.9755 25.432 30.5668 25.1307 30.2655L21.4505 26.6013L46.396 26.6013C46.8204 26.6013 47.2273 26.4327 47.5274 26.1327C47.8275 25.8326 47.9961 25.4256 47.9961 25.0012C47.9961 24.5769 47.8275 24.1699 47.5274 23.8698C47.2273 23.5697 46.8204 23.4011 46.396 23.4011Z" fill="black"/>
<path d="M46.396 23.4011L21.4505 23.4011L25.1307 19.7369C25.2807 19.5882 25.3998 19.4112 25.481 19.2162C25.5622 19.0212 25.6041 18.8121 25.6041 18.6009C25.6041 18.3896 25.5622 18.1805 25.481 17.9855C25.3998 17.7905 25.2807 17.6135 25.1307 17.4648C24.982 17.3148 24.805 17.1958 24.61 17.1145C24.4151 17.0333 24.2059 16.9915 23.9947 16.9915C23.7835 16.9915 23.5743 17.0333 23.3793 17.1145C23.1843 17.1958 23.0074 17.3148 22.8586 17.4648L16.4582 23.8652C16.3126 24.0173 16.1984 24.1968 16.1222 24.3932C15.9622 24.7828 15.9622 25.2197 16.1222 25.6093C16.1984 25.8057 16.3126 25.9851 16.4582 26.1373L22.8586 32.5377C23.1599 32.839 23.5686 33.0082 23.9947 33.0082C24.4208 33.0082 24.8294 32.839 25.1307 32.5377C25.432 32.2364 25.6013 31.8277 25.6013 31.4016C25.6013 30.9755 25.432 30.5668 25.1307 30.2655L21.4505 26.6013L46.396 26.6013C46.8204 26.6013 47.2273 26.4327 47.5274 26.1327C47.8275 25.8326 47.9961 25.4256 47.9961 25.0012C47.9961 24.5769 47.8275 24.1699 47.5274 23.8698C47.2273 23.5697 46.8204 23.4011 46.396 23.4011Z" fill="url(#paint2_linear_265_3)"/>
<path d="M23.9947 49.0029C29.1671 48.9825 34.1963 47.3017 38.3416 44.2079C42.4868 41.1141 45.529 36.7709 47.02 31.8179C47.0837 31.6142 47.106 31.3997 47.0855 31.1872C47.0651 30.9747 47.0023 30.7684 46.9009 30.5805C46.7995 30.3927 46.6616 30.227 46.4951 30.0932C46.3287 29.9595 46.1372 29.8604 45.9319 29.8018C45.5245 29.683 45.0866 29.7309 44.7145 29.9349C44.3424 30.139 44.0666 30.4825 43.9478 30.8899C42.5286 35.6842 39.4299 39.8069 35.2192 42.5032C31.0085 45.1994 25.9675 46.2888 21.0192 45.5717C16.0708 44.8547 11.5464 42.3793 8.27416 38.5988C5.00194 34.8182 3.20095 29.9855 3.20095 24.9855C3.20095 19.9855 5.00194 15.1528 8.27416 11.3723C11.5464 7.59175 16.0709 5.11634 21.0192 4.39932C25.9675 3.68229 31.0085 4.77163 35.2192 7.46788C39.4299 10.1641 42.5286 14.2868 43.9478 19.0812C44.0033 19.2858 44.0988 19.4774 44.2289 19.6447C44.359 19.8121 44.521 19.9519 44.7056 20.0562C44.8902 20.1604 45.0937 20.2269 45.3042 20.2518C45.5147 20.2767 45.7281 20.2595 45.9319 20.2013C46.1354 20.1425 46.3253 20.044 46.4904 19.9113C46.6555 19.7787 46.7926 19.6146 46.8939 19.4285C46.9951 19.2425 47.0583 19.0382 47.08 18.8275C47.1016 18.6168 47.0813 18.4039 47.02 18.2011C45.7582 13.9301 43.3329 10.0945 40.0156 7.12315C36.6982 4.15183 32.6196 2.16209 28.2359 1.3765C23.8523 0.590914 19.3365 1.04047 15.1938 2.67487C11.051 4.30927 7.44474 7.06406 4.77828 10.6311C2.11182 14.1981 0.490386 18.4366 0.0953545 22.8726C-0.299681 27.3085 0.547266 31.7668 2.54146 35.7489C4.53564 39.731 7.59841 43.0796 11.3872 45.4204C15.1759 47.7611 19.5412 49.0015 23.9947 49.0029Z" fill="black"/>
<path d="M23.9947 49.0029C29.1671 48.9825 34.1963 47.3017 38.3416 44.2079C42.4868 41.1141 45.529 36.7709 47.02 31.8179C47.0837 31.6142 47.106 31.3997 47.0855 31.1872C47.0651 30.9747 47.0023 30.7684 46.9009 30.5805C46.7995 30.3927 46.6616 30.227 46.4951 30.0932C46.3287 29.9595 46.1372 29.8604 45.9319 29.8018C45.5245 29.683 45.0866 29.7309 44.7145 29.9349C44.3424 30.139 44.0666 30.4825 43.9478 30.8899C42.5286 35.6842 39.4299 39.8069 35.2192 42.5032C31.0085 45.1994 25.9675 46.2888 21.0192 45.5717C16.0708 44.8547 11.5464 42.3793 8.27416 38.5988C5.00194 34.8182 3.20095 29.9855 3.20095 24.9855C3.20095 19.9855 5.00194 15.1528 8.27416 11.3723C11.5464 7.59175 16.0709 5.11634 21.0192 4.39932C25.9675 3.68229 31.0085 4.77163 35.2192 7.46788C39.4299 10.1641 42.5286 14.2868 43.9478 19.0812C44.0033 19.2858 44.0988 19.4774 44.2289 19.6447C44.359 19.8121 44.521 19.9519 44.7056 20.0562C44.8902 20.1604 45.0937 20.2269 45.3042 20.2518C45.5147 20.2767 45.7281 20.2595 45.9319 20.2013C46.1354 20.1425 46.3253 20.044 46.4904 19.9113C46.6555 19.7787 46.7926 19.6146 46.8939 19.4285C46.9951 19.2425 47.0583 19.0382 47.08 18.8275C47.1016 18.6168 47.0813 18.4039 47.02 18.2011C45.7582 13.9301 43.3329 10.0945 40.0156 7.12315C36.6982 4.15183 32.6196 2.16209 28.2359 1.3765C23.8523 0.590914 19.3365 1.04047 15.1938 2.67487C11.051 4.30927 7.44474 7.06406 4.77828 10.6311C2.11182 14.1981 0.490386 18.4366 0.0953545 22.8726C-0.299681 27.3085 0.547266 31.7668 2.54146 35.7489C4.53564 39.731 7.59841 43.0796 11.3872 45.4204C15.1759 47.7611 19.5412 49.0015 23.9947 49.0029Z" fill="url(#paint3_linear_265_3)"/>
<defs>
<linearGradient id="paint0_linear_265_3" x1="83.8673" y1="15.9947" x2="137.547" y2="18.7353" gradientUnits="userSpaceOnUse">
<stop stop-color="#11AE88"/>
<stop offset="1" stop-color="#2A84EE"/>
</linearGradient>
<linearGradient id="paint1_linear_265_3" x1="85.6517" y1="4.08636e-05" x2="164.82" y2="1.98513" gradientUnits="userSpaceOnUse">
<stop stop-color="#11AE88"/>
<stop offset="1" stop-color="#2A84EE"/>
</linearGradient>
<linearGradient id="paint2_linear_265_3" x1="46.1287" y1="33.0082" x2="-7.55107" y2="30.2676" gradientUnits="userSpaceOnUse">
<stop stop-color="#11AE88"/>
<stop offset="1" stop-color="#2A84EE"/>
</linearGradient>
<linearGradient id="paint3_linear_265_3" x1="44.3443" y1="49.0029" x2="-34.8238" y2="47.0178" gradientUnits="userSpaceOnUse">
<stop stop-color="#11AE88"/>
<stop offset="1" stop-color="#2A84EE"/>
</linearGradient>
</defs>
</svg>
