<svg height="auto" viewBox="0 0 2000 1000" xmlns="http://www.w3.org/2000/svg"><path d="M0 995.788c21-9.614 63-31.796 105-48.068 42-16.273 63-12.604 105-33.294 42-20.69 63-54.715 105-70.154 42-15.438 63 2.763 105-7.036s63-16.015 105-41.958c42-25.943 63-58.338 105-87.756 42-29.42 63-52.988 105-59.338 42-6.35 63 32.882 105 27.587 42-5.295 63-48.093 105-54.062 42-5.969 63 16.526 105 24.219 42 7.693 63 53.28 105 14.247 42-39.032 63-171.226 105-209.41 42-38.185 63 21.897 105 18.49 42-3.408 63-2.392 105-35.528 42-33.135 63-133.41 105-130.15 42 3.259 63 101.913 105 146.448 42 44.534 63 147.387 105 76.224 42-71.164 63-369.507 105-432.042 42-62.535 84 95.493 105 119.366l5 786.427H0Z" fill="#444cf71a"/><path d="M0 995.788c21-9.614 63-31.796 105-48.068 42-16.273 63-12.604 105-33.294 42-20.69 63-54.715 105-70.154 42-15.438 63 2.763 105-7.036s63-16.015 105-41.958c42-25.943 63-58.338 105-87.756 42-29.42 63-52.988 105-59.338 42-6.35 63 32.882 105 27.587 42-5.295 63-48.093 105-54.062 42-5.969 63 16.526 105 24.219 42 7.693 63 53.28 105 14.247 42-39.032 63-171.226 105-209.41 42-38.185 63 21.897 105 18.49 42-3.408 63-2.392 105-35.528 42-33.135 63-133.41 105-130.15 42 3.259 63 101.913 105 146.448 42 44.534 63 147.387 105 76.224 42-71.164 63-369.507 105-432.042 42-62.535 84 95.493 105 119.366" fill="none" stroke="#444cf7" stroke-width="4"/><g fill="#444cf7"><circle cy="995.788" r="8"/><circle cx="105" cy="947.72" r="8"/><circle cx="210" cy="914.426" r="8"/><circle cx="315" cy="844.272" r="8"/><circle cx="420" cy="837.236" r="8"/><circle cx="525" cy="795.278" r="8"/><circle cx="630" cy="707.522" r="8"/><circle cx="735" cy="648.184" r="8"/><circle cx="840" cy="675.771" r="8"/><circle cx="945" cy="621.709" r="8"/><circle cx="1050" cy="645.928" r="8"/><circle cx="1155" cy="660.175" r="8"/><circle cx="1260" cy="450.764" r="8"/><circle cx="1365" cy="469.254" r="8"/><circle cx="1470" cy="433.727" r="8"/><circle cx="1575" cy="303.576" r="8"/><circle cx="1680" cy="450.025" r="8"/><circle cx="1785" cy="526.249" r="8"/><circle cx="1890" cy="94.207" r="8"/><circle cx="1995" cy="213.573" r="8"/></g></svg>